<mxfile host="65bd71144e">
    <diagram id="lYOwhJuz0UQHOzpPjOV2" name="Page-1">
        <mxGraphModel dx="625" dy="1663" grid="1" gridSize="10" guides="1" tooltips="1" connect="1" arrows="1" fold="1" page="1" pageScale="1" pageWidth="850" pageHeight="1100" math="0" shadow="0">
            <root>
                <mxCell id="0"/>
                <mxCell id="1" parent="0"/>
                <mxCell id="Fr26Q08nc7WziKVhEbMN-69" value="" style="rounded=1;whiteSpace=wrap;html=1;fillColor=#dae8fc;strokeColor=#6c8ebf;" parent="1" vertex="1">
                    <mxGeometry x="560" y="60" width="300" height="210" as="geometry"/>
                </mxCell>
                <mxCell id="Fr26Q08nc7WziKVhEbMN-67" value="" style="rounded=1;whiteSpace=wrap;html=1;fillColor=#dae8fc;strokeColor=#6c8ebf;" parent="1" vertex="1">
                    <mxGeometry x="380" y="60" width="160" height="210" as="geometry"/>
                </mxCell>
                <mxCell id="Fr26Q08nc7WziKVhEbMN-66" value="" style="rounded=1;whiteSpace=wrap;html=1;fillColor=#dae8fc;strokeColor=#6c8ebf;" parent="1" vertex="1">
                    <mxGeometry x="370" y="540" width="180" height="340" as="geometry"/>
                </mxCell>
                <mxCell id="2" value="Question generation model" style="rounded=1;whiteSpace=wrap;html=1;fillColor=#d0cee2;strokeColor=#56517e;" parent="1" vertex="1">
                    <mxGeometry x="120" y="280" width="120" height="40" as="geometry"/>
                </mxCell>
                <mxCell id="3" value="Distractor generation model" style="rounded=1;whiteSpace=wrap;html=1;fillColor=#fad7ac;strokeColor=#b46504;" parent="1" vertex="1">
                    <mxGeometry x="120" y="360" width="120" height="40" as="geometry"/>
                </mxCell>
                <mxCell id="4" value="Answer generation model" style="rounded=1;whiteSpace=wrap;html=1;fillColor=#b1ddf0;strokeColor=#10739e;" parent="1" vertex="1">
                    <mxGeometry x="120" y="440" width="120" height="40" as="geometry"/>
                </mxCell>
                <mxCell id="Fr26Q08nc7WziKVhEbMN-19" value="" style="edgeStyle=orthogonalEdgeStyle;rounded=0;orthogonalLoop=1;jettySize=auto;html=1;" parent="1" source="Fr26Q08nc7WziKVhEbMN-16" target="Fr26Q08nc7WziKVhEbMN-18" edge="1">
                    <mxGeometry relative="1" as="geometry"/>
                </mxCell>
                <mxCell id="Fr26Q08nc7WziKVhEbMN-16" value="Question generation model" style="rounded=1;whiteSpace=wrap;html=1;fillColor=#d0cee2;strokeColor=#56517e;" parent="1" vertex="1">
                    <mxGeometry x="400" y="80" width="120" height="40" as="geometry"/>
                </mxCell>
                <mxCell id="Fr26Q08nc7WziKVhEbMN-22" value="" style="edgeStyle=orthogonalEdgeStyle;rounded=0;orthogonalLoop=1;jettySize=auto;html=1;" parent="1" source="Fr26Q08nc7WziKVhEbMN-17" target="Fr26Q08nc7WziKVhEbMN-21" edge="1">
                    <mxGeometry relative="1" as="geometry"/>
                </mxCell>
                <mxCell id="Fr26Q08nc7WziKVhEbMN-17" value="Distractor generation model" style="rounded=1;whiteSpace=wrap;html=1;fillColor=#fad7ac;strokeColor=#b46504;" parent="1" vertex="1">
                    <mxGeometry x="400" y="210" width="120" height="40" as="geometry"/>
                </mxCell>
                <mxCell id="Fr26Q08nc7WziKVhEbMN-20" value="" style="edgeStyle=orthogonalEdgeStyle;rounded=0;orthogonalLoop=1;jettySize=auto;html=1;" parent="1" source="Fr26Q08nc7WziKVhEbMN-18" target="Fr26Q08nc7WziKVhEbMN-17" edge="1">
                    <mxGeometry relative="1" as="geometry"/>
                </mxCell>
                <mxCell id="Fr26Q08nc7WziKVhEbMN-18" value="question, context, correct answer" style="text;html=1;align=center;verticalAlign=middle;whiteSpace=wrap;rounded=0;" parent="1" vertex="1">
                    <mxGeometry x="400" y="150" width="120" height="30" as="geometry"/>
                </mxCell>
                <mxCell id="Fr26Q08nc7WziKVhEbMN-21" value="question, correct answer, distractors" style="text;html=1;align=center;verticalAlign=middle;whiteSpace=wrap;rounded=0;" parent="1" vertex="1">
                    <mxGeometry x="400" y="280" width="120" height="30" as="geometry"/>
                </mxCell>
                <mxCell id="Fr26Q08nc7WziKVhEbMN-27" style="edgeStyle=orthogonalEdgeStyle;rounded=0;orthogonalLoop=1;jettySize=auto;html=1;entryX=0.5;entryY=0;entryDx=0;entryDy=0;" parent="1" source="Fr26Q08nc7WziKVhEbMN-23" target="Fr26Q08nc7WziKVhEbMN-16" edge="1">
                    <mxGeometry relative="1" as="geometry"/>
                </mxCell>
                <mxCell id="Fr26Q08nc7WziKVhEbMN-23" value="context, correct answer" style="text;html=1;align=center;verticalAlign=middle;whiteSpace=wrap;rounded=0;" parent="1" vertex="1">
                    <mxGeometry x="400" y="20" width="120" height="30" as="geometry"/>
                </mxCell>
                <mxCell id="Fr26Q08nc7WziKVhEbMN-28" value="" style="edgeStyle=orthogonalEdgeStyle;rounded=0;orthogonalLoop=1;jettySize=auto;html=1;entryX=0.25;entryY=0;entryDx=0;entryDy=0;" parent="1" source="Fr26Q08nc7WziKVhEbMN-29" target="Fr26Q08nc7WziKVhEbMN-34" edge="1">
                    <mxGeometry relative="1" as="geometry">
                        <mxPoint x="630" y="215" as="targetPoint"/>
                    </mxGeometry>
                </mxCell>
                <mxCell id="Fr26Q08nc7WziKVhEbMN-29" value="Question generation model" style="rounded=1;whiteSpace=wrap;html=1;fillColor=#d0cee2;strokeColor=#56517e;" parent="1" vertex="1">
                    <mxGeometry x="570" y="145" width="120" height="40" as="geometry"/>
                </mxCell>
                <mxCell id="Fr26Q08nc7WziKVhEbMN-38" style="edgeStyle=orthogonalEdgeStyle;rounded=0;orthogonalLoop=1;jettySize=auto;html=1;entryX=0.75;entryY=0;entryDx=0;entryDy=0;" parent="1" source="Fr26Q08nc7WziKVhEbMN-31" target="Fr26Q08nc7WziKVhEbMN-34" edge="1">
                    <mxGeometry relative="1" as="geometry"/>
                </mxCell>
                <mxCell id="Fr26Q08nc7WziKVhEbMN-31" value="Distractor generation model" style="rounded=1;whiteSpace=wrap;html=1;fillColor=#fad7ac;strokeColor=#b46504;" parent="1" vertex="1">
                    <mxGeometry x="720" y="145" width="120" height="40" as="geometry"/>
                </mxCell>
                <mxCell id="Fr26Q08nc7WziKVhEbMN-34" value="question, correct answer, distractors" style="text;html=1;align=center;verticalAlign=middle;whiteSpace=wrap;rounded=0;" parent="1" vertex="1">
                    <mxGeometry x="660" y="280" width="120" height="30" as="geometry"/>
                </mxCell>
                <mxCell id="Fr26Q08nc7WziKVhEbMN-35" style="edgeStyle=orthogonalEdgeStyle;rounded=0;orthogonalLoop=1;jettySize=auto;html=1;entryX=0.5;entryY=0;entryDx=0;entryDy=0;" parent="1" source="Fr26Q08nc7WziKVhEbMN-36" target="Fr26Q08nc7WziKVhEbMN-29" edge="1">
                    <mxGeometry relative="1" as="geometry"/>
                </mxCell>
                <mxCell id="Fr26Q08nc7WziKVhEbMN-37" style="edgeStyle=orthogonalEdgeStyle;rounded=0;orthogonalLoop=1;jettySize=auto;html=1;entryX=0.5;entryY=0;entryDx=0;entryDy=0;" parent="1" source="Fr26Q08nc7WziKVhEbMN-36" target="Fr26Q08nc7WziKVhEbMN-31" edge="1">
                    <mxGeometry relative="1" as="geometry"/>
                </mxCell>
                <mxCell id="Fr26Q08nc7WziKVhEbMN-36" value="context, correct answer" style="text;html=1;align=center;verticalAlign=middle;whiteSpace=wrap;rounded=0;" parent="1" vertex="1">
                    <mxGeometry x="650" y="20" width="120" height="30" as="geometry"/>
                </mxCell>
                <mxCell id="Fr26Q08nc7WziKVhEbMN-40" value="" style="edgeStyle=orthogonalEdgeStyle;rounded=0;orthogonalLoop=1;jettySize=auto;html=1;entryX=0.5;entryY=0;entryDx=0;entryDy=0;" parent="1" source="Fr26Q08nc7WziKVhEbMN-41" target="Fr26Q08nc7WziKVhEbMN-59" edge="1">
                    <mxGeometry relative="1" as="geometry"/>
                </mxCell>
                <mxCell id="Fr26Q08nc7WziKVhEbMN-41" value="Question generation model" style="rounded=1;whiteSpace=wrap;html=1;fillColor=#d0cee2;strokeColor=#56517e;" parent="1" vertex="1">
                    <mxGeometry x="400" y="560" width="120" height="40" as="geometry"/>
                </mxCell>
                <mxCell id="Fr26Q08nc7WziKVhEbMN-42" value="" style="edgeStyle=orthogonalEdgeStyle;rounded=0;orthogonalLoop=1;jettySize=auto;html=1;" parent="1" source="Fr26Q08nc7WziKVhEbMN-43" target="Fr26Q08nc7WziKVhEbMN-46" edge="1">
                    <mxGeometry relative="1" as="geometry"/>
                </mxCell>
                <mxCell id="Fr26Q08nc7WziKVhEbMN-43" value="Distractor generation model" style="rounded=1;whiteSpace=wrap;html=1;fillColor=#fad7ac;strokeColor=#b46504;" parent="1" vertex="1">
                    <mxGeometry x="400" y="825" width="120" height="40" as="geometry"/>
                </mxCell>
                <mxCell id="Fr26Q08nc7WziKVhEbMN-44" value="" style="edgeStyle=orthogonalEdgeStyle;rounded=0;orthogonalLoop=1;jettySize=auto;html=1;" parent="1" source="Fr26Q08nc7WziKVhEbMN-45" target="Fr26Q08nc7WziKVhEbMN-43" edge="1">
                    <mxGeometry relative="1" as="geometry"/>
                </mxCell>
                <mxCell id="Fr26Q08nc7WziKVhEbMN-45" value="question, context, answer" style="text;html=1;align=center;verticalAlign=middle;whiteSpace=wrap;rounded=0;" parent="1" vertex="1">
                    <mxGeometry x="400" y="765" width="120" height="30" as="geometry"/>
                </mxCell>
                <mxCell id="Fr26Q08nc7WziKVhEbMN-46" value="question, answer, distractors" style="text;html=1;align=center;verticalAlign=middle;whiteSpace=wrap;rounded=0;" parent="1" vertex="1">
                    <mxGeometry x="400" y="895" width="120" height="30" as="geometry"/>
                </mxCell>
                <mxCell id="Fr26Q08nc7WziKVhEbMN-47" style="edgeStyle=orthogonalEdgeStyle;rounded=0;orthogonalLoop=1;jettySize=auto;html=1;entryX=0.5;entryY=0;entryDx=0;entryDy=0;" parent="1" source="Fr26Q08nc7WziKVhEbMN-48" target="Fr26Q08nc7WziKVhEbMN-41" edge="1">
                    <mxGeometry relative="1" as="geometry"/>
                </mxCell>
                <mxCell id="Fr26Q08nc7WziKVhEbMN-48" value="context" style="text;html=1;align=center;verticalAlign=middle;whiteSpace=wrap;rounded=0;" parent="1" vertex="1">
                    <mxGeometry x="400" y="500" width="120" height="30" as="geometry"/>
                </mxCell>
                <mxCell id="Fr26Q08nc7WziKVhEbMN-58" value="" style="edgeStyle=orthogonalEdgeStyle;rounded=0;orthogonalLoop=1;jettySize=auto;html=1;" parent="1" source="Fr26Q08nc7WziKVhEbMN-57" target="Fr26Q08nc7WziKVhEbMN-45" edge="1">
                    <mxGeometry relative="1" as="geometry"/>
                </mxCell>
                <mxCell id="Fr26Q08nc7WziKVhEbMN-57" value="Answer generation model" style="rounded=1;whiteSpace=wrap;html=1;fillColor=#b1ddf0;strokeColor=#10739e;" parent="1" vertex="1">
                    <mxGeometry x="400" y="690" width="120" height="40" as="geometry"/>
                </mxCell>
                <mxCell id="Fr26Q08nc7WziKVhEbMN-60" value="" style="edgeStyle=orthogonalEdgeStyle;rounded=0;orthogonalLoop=1;jettySize=auto;html=1;" parent="1" source="Fr26Q08nc7WziKVhEbMN-59" target="Fr26Q08nc7WziKVhEbMN-57" edge="1">
                    <mxGeometry relative="1" as="geometry"/>
                </mxCell>
                <mxCell id="Fr26Q08nc7WziKVhEbMN-59" value="question, context" style="text;html=1;align=center;verticalAlign=middle;whiteSpace=wrap;rounded=0;" parent="1" vertex="1">
                    <mxGeometry x="400" y="630" width="120" height="30" as="geometry"/>
                </mxCell>
                <mxCell id="Fr26Q08nc7WziKVhEbMN-71" value="&lt;b&gt;Pipeline 1&lt;/b&gt;" style="text;html=1;align=center;verticalAlign=middle;whiteSpace=wrap;rounded=0;" parent="1" vertex="1">
                    <mxGeometry x="430" y="-10" width="60" height="30" as="geometry"/>
                </mxCell>
                <mxCell id="Fr26Q08nc7WziKVhEbMN-72" value="&lt;b&gt;Pipeline 2&lt;/b&gt;" style="text;html=1;align=center;verticalAlign=middle;whiteSpace=wrap;rounded=0;" parent="1" vertex="1">
                    <mxGeometry x="680" y="-10" width="60" height="30" as="geometry"/>
                </mxCell>
                <mxCell id="Fr26Q08nc7WziKVhEbMN-73" value="&lt;b&gt;Pipeline 3&lt;/b&gt;" style="text;html=1;align=center;verticalAlign=middle;whiteSpace=wrap;rounded=0;" parent="1" vertex="1">
                    <mxGeometry x="430" y="470" width="60" height="30" as="geometry"/>
                </mxCell>
            </root>
        </mxGraphModel>
    </diagram>
</mxfile>